OpenSim_Sub08_CSStiffKnee_GRF.mot
version=1
nRows=58
nColumns=19
inDegrees=no
endheader
time	lFx	lFy	lFz	lCOPx	lCOPy	lCOPz	rFx	rFy	rFz	rCOPx	rCOPy	rCOPz	lMx	lMy	lMz	rMx	rMy	rMz
0	-5.32724693	249.04028639	22.25480387	0.62124801	0	-0.66920474	2.56686202	280.24166282	-24.07332658	0.64764815	0	-0.36437430	0	-0.88471461	0	0	0.89520156	-0.00000000
0.01000000	-5.04999235	248.88250357	22.46295295	0.62120782	0	-0.66871570	2.66150127	280.44635842	-24.00597802	0.64763998	0	-0.36434788	0	-0.95283709	0	0	0.82236033	0
0.02000000	-4.87182790	248.67188754	22.54184820	0.62123046	0	-0.66854544	2.71022917	280.90942546	-23.97548156	0.64758872	0	-0.36437616	0	-0.99491333	0	0	0.80408538	0
0.03000000	-4.79251488	248.47669646	22.55252849	0.62125998	0	-0.66858870	2.70738827	281.50952831	-23.98911764	0.64758134	0	-0.36445823	0	-1.01128936	0	0	0.80999275	0.00000000
0.04000000	-4.78262666	248.21198030	22.53927084	0.62132728	0	-0.66865714	2.66012135	282.15597273	-24.00804026	0.64753311	0	-0.36451501	0	-1.01133105	0	0	0.81170600	0.00000000
0.05000000	-4.79035367	247.86014950	22.51078440	0.62141183	0	-0.66868991	2.58263827	282.75217572	-24.04653826	0.64746878	0	-0.36454876	0	-1.01721007	0	0	0.79375574	0
0.06000000	-4.79414931	247.53188319	22.49389964	0.62145161	0	-0.66862878	2.50274125	283.25358553	-24.12011659	0.64744478	0	-0.36457158	0	-1.01837037	0	0	0.76335131	-0.00000000
0.07000000	-4.78985579	247.25746285	22.48910433	0.62140067	0	-0.66852096	2.43795903	283.74487593	-24.21283472	0.64748048	0	-0.36456039	0	-1.00369083	0	0	0.73145936	0.00000000
0.08000000	-4.76969580	247.03739146	22.48509026	0.62135470	0	-0.66846424	2.39868301	284.30273423	-24.32081278	0.64757383	0	-0.36454033	0	-0.98375818	0	0	0.70767775	0
0.09000000	-4.74341585	246.88723442	22.46582233	0.62139069	0	-0.66850867	2.37624886	284.92029760	-24.42071075	0.64762632	0	-0.36451847	0	-0.96604532	0	0	0.69953668	0
0.10000000	-4.72428711	246.84790812	22.45077999	0.62143090	0	-0.66857803	2.36187800	285.50520764	-24.50528002	0.64757978	0	-0.36449438	0	-0.96367618	0	0	0.70462935	0.00000000
0.11000000	-4.71474029	246.94721003	22.46737209	0.62147499	0	-0.66859947	2.35612002	286.00956766	-24.57665157	0.64755318	0	-0.36448230	0	-0.97397723	0	0	0.70178748	0
0.12000000	-4.69619199	247.15396187	22.51466123	0.62150433	0	-0.66858160	2.36244476	286.45885420	-24.64197019	0.64757107	0	-0.36443741	0	-0.98848664	0	0	0.68539167	0.00000000
0.13000000	-4.65513792	247.37498977	22.56052214	0.62145582	0	-0.66854919	2.38769939	286.85775041	-24.70483961	0.64764346	0	-0.36435335	0	-0.99566142	0	0	0.66724365	0
0.14000000	-4.62740945	247.50385572	22.59110363	0.62145930	0	-0.66850431	2.43232271	287.15227451	-24.76498732	0.64773044	0	-0.36428777	0	-0.99221379	0	0	0.65396699	0.00000000
0.15000000	-4.63266086	247.46883467	22.61232572	0.62159431	0	-0.66846139	2.49079733	287.28231261	-24.80938049	0.64772968	0	-0.36426671	0	-0.99626642	0	0	0.65070132	0
0.16000000	-4.65368900	247.30367925	22.62166537	0.62179396	0	-0.66843455	2.55436547	287.27315497	-24.82451714	0.64759379	0	-0.36428339	0	-1.01147178	0	0	0.65642923	0.00000000
0.17000000	-4.66408717	247.12395670	22.62900822	0.62187023	0	-0.66842224	2.62251073	287.25670491	-24.80649926	0.64742262	0	-0.36428527	0	-1.02877505	0	0	0.67545744	0.00000000
0.18000000	-4.65262528	246.97323664	22.63165345	0.62189618	0	-0.66845198	2.69637610	287.27978906	-24.76876796	0.64733956	0	-0.36426366	0	-1.04983627	0	0	0.70587735	-0.00000000
0.19000000	-4.62876736	246.84860092	22.61800530	0.62199102	0	-0.66854059	2.77986795	287.28291533	-24.73632402	0.64734099	0	-0.36428178	0	-1.07298926	0	0	0.73398800	0
0.20000000	-4.60715047	246.81958412	22.60655842	0.62207168	0	-0.66863696	2.86023657	287.32921676	-24.72120380	0.64741748	0	-0.36430836	0	-1.08248475	0	0	0.74548993	0
0.21000000	-4.59273623	246.97488149	22.63124065	0.62212654	0	-0.66866246	2.91795289	287.45194290	-24.71482944	0.64755249	0	-0.36428561	0	-1.07554261	0	0	0.73977760	0
0.22000000	-4.59798479	247.29122908	22.68687322	0.62225111	0	-0.66864673	2.93067210	287.53961971	-24.71452312	0.64757878	0	-0.36424846	0	-1.06912835	0	0	0.72589287	0.00000000
0.23000000	-4.61167500	247.63284027	22.76009210	0.62240348	0	-0.66867096	2.90722170	287.58292023	-24.73504768	0.64750154	0	-0.36419908	0	-1.08364738	0	0	0.70518185	0
0.24000000	-4.62241954	247.96437534	22.84455455	0.62265242	0	-0.66875672	2.87777078	287.60398065	-24.78474748	0.64747513	0	-0.36414433	0	-1.10240669	0	0	0.68878114	0
0.25000000	-4.63016947	248.27109637	22.92431317	0.62310073	0	-0.66887616	2.84929320	287.62535797	-24.85437074	0.64752691	0	-0.36408974	0	-1.11567581	0	0	0.68766967	0
0.26000000	-4.66014986	248.47295875	22.99055948	0.62359991	0	-0.66900077	2.81538717	287.65149363	-24.92351190	0.64758619	0	-0.36408027	0	-1.13848412	0	0	0.69784214	0.00000000
0.27000000	-4.71763666	248.61466288	23.06420576	0.62406471	0	-0.66915484	2.77679195	287.64789371	-24.96665084	0.64765095	0	-0.36412148	0	-1.17043170	0	0	0.71374071	-0.00000000
0.28000000	-4.80680822	248.82163059	23.16050396	0.62451053	0	-0.66935343	2.74947413	287.64067661	-24.97139347	0.64762899	0	-0.36418782	0	-1.20097494	0	0	0.71694290	0
0.29000000	-4.93375088	249.07752584	23.24785768	0.62522038	0	-0.66956806	2.74324738	287.67837389	-24.95540193	0.64759153	0	-0.36423089	0	-1.21976262	0	0	0.70430171	0.00000000
0.30000000	-5.07601221	249.36047090	23.32446535	0.62622645	0	-0.66977090	2.75138006	287.73968596	-24.94251091	0.64764470	0	-0.36425991	0	-1.22736119	0	0	0.70220676	0.00000000
0.31000000	-5.23752294	249.64678038	23.40825394	0.62744003	0	-0.66994145	2.76099631	287.79474733	-24.91212309	0.64782633	0	-0.36424790	0	-1.21805528	0	0	0.70557252	0
0.32000000	-5.42026359	249.87004927	23.49481835	0.62863428	0	-0.67008418	2.76578274	287.77807338	-24.85622114	0.64801247	0	-0.36419602	0	-1.19198520	0	0	0.70083123	0
0.33000000	-5.61524702	250.05719939	23.56957459	0.62956008	0	-0.67025164	2.77150186	287.63581425	-24.80034080	0.64808837	0	-0.36415126	0	-1.15907729	0	0	0.70680225	0
0.34000000	-5.81240817	250.23280959	23.63375273	0.63024697	0	-0.67045144	2.77319989	287.40792212	-24.75165327	0.64817110	0	-0.36415513	0	-1.11977544	0	0	0.72100915	0
0.35000000	-5.98221025	250.31200012	23.67606306	0.63100021	0	-0.67062015	2.76609460	287.17436828	-24.70201146	0.64845325	0	-0.36417304	0	-1.09448201	0	0	0.72265560	0.00000000
0.36000000	-6.12768000	250.29800724	23.69848679	0.63193656	0	-0.67070448	2.75958330	286.96500949	-24.66930905	0.64878727	0	-0.36416690	0	-1.08840595	0	0	0.71993998	0
0.37000000	-6.27227491	250.28673132	23.71651272	0.63290865	0	-0.67074060	2.75082506	286.77403163	-24.65670968	0.64889380	0	-0.36412908	0	-1.08913884	0	0	0.73153641	0
0.38000000	-6.44388136	250.28790690	23.74832812	0.63359780	0	-0.67076976	2.73760736	286.64035295	-24.65374460	0.64882076	0	-0.36404255	0	-1.08663493	0	0	0.75645649	0
0.39000000	-6.64996738	250.37394470	23.81911984	0.63392153	0	-0.67078985	2.72871653	286.58667915	-24.65629309	0.64871326	0	-0.36394195	0	-1.09110404	0	0	0.78153624	0
0.40000000	-6.86197740	250.54806637	23.91965618	0.63419678	0	-0.67081766	2.72028325	286.52291427	-24.66564102	0.64874387	0	-0.36388832	0	-1.11004666	0	0	0.79237345	0
0.41000000	-7.05798427	250.69580144	24.02509211	0.63453484	0	-0.67087211	2.71179638	286.39520335	-24.68082150	0.64894749	0	-0.36388926	0	-1.14253585	0	0	0.79088368	-0.00000000
0.42000000	-7.23130617	250.69557640	24.10285669	0.63495478	0	-0.67094005	2.71219870	286.24320418	-24.69590254	0.64933003	0	-0.36387970	0	-1.18076771	0	0	0.77779684	-0.00000000
0.43000000	-7.37579391	250.54498450	24.14932709	0.63550420	0	-0.67099864	2.71140657	286.10387028	-24.69575638	0.64977126	0	-0.36383648	0	-1.22047716	0	0	0.77392379	0
0.44000000	-7.49864284	250.34595284	24.18942557	0.63605814	0	-0.67104879	2.69996850	285.94589176	-24.68230544	0.65015256	0	-0.36380486	0	-1.25927270	0	0	0.78428612	0.00000000
0.45000000	-7.57363032	250.22018939	24.25067205	0.63648908	0	-0.67112122	2.67915514	285.72949043	-24.67279413	0.65040294	0	-0.36379873	0	-1.30046761	0	0	0.79452484	0
0.46000000	-7.59512446	250.19554947	24.32992432	0.63671214	0	-0.67125334	2.63465099	285.45136057	-24.67480521	0.65054085	0	-0.36378412	0	-1.34429711	0	0	0.79117106	-0.00000000
0.47000000	-7.59933508	250.27160421	24.41295443	0.63664320	0	-0.67139904	2.56357810	285.15939033	-24.67214862	0.65058720	0	-0.36373707	0	-1.37384728	0	0	0.77469576	0
0.48000000	-7.59773088	250.44184421	24.50076327	0.63646525	0	-0.67152948	2.45626057	284.91376200	-24.67405473	0.65065610	0	-0.36364842	0	-1.37940872	0	0	0.75863562	0
0.49000000	-7.59006410	250.63408519	24.59876688	0.63641813	0	-0.67162070	2.29582392	284.73427909	-24.71377725	0.65091688	0	-0.36355785	0	-1.36971547	0	0	0.74804608	-0.00000000
0.50000000	-7.59416150	250.71681585	24.69185713	0.63650104	0	-0.67162991	2.04068189	284.56069657	-24.80157522	0.65139997	0	-0.36346689	0	-1.35911885	0	0	0.74846107	-0.00000000
0.51000000	-7.61372680	250.66588242	24.75440658	0.63660254	0	-0.67155833	1.70585805	284.32203925	-24.89744205	0.65189246	0	-0.36333811	0	-1.35921562	0	0	0.75313314	0
0.52000000	-7.64431103	250.57559456	24.79285729	0.63674108	0	-0.67149504	1.35360535	284.04882612	-24.95801124	0.65229102	0	-0.36314626	0	-1.36992316	0	0	0.75691632	0.00000000
0.53000000	-7.67694475	250.48995771	24.84779726	0.63686192	0	-0.67145520	1.04585216	283.79027769	-24.98013461	0.65280722	0	-0.36293343	0	-1.39399983	0	0	0.75365929	0.00000000
0.54000000	-7.69539213	250.38403187	24.92150411	0.63683513	0	-0.67140667	0.81930204	283.53898308	-24.96330505	0.65353924	0	-0.36276540	0	-1.42620195	0	0	0.74891950	0.00000000
0.55000000	-7.69071650	250.24984619	24.98588988	0.63669437	0	-0.67135133	0.66733631	283.28526729	-24.90258328	0.65422277	0	-0.36261794	0	-1.43574261	0	0	0.75377419	0.00000000
0.56000000	-7.65591625	250.07409155	25.00059393	0.63653608	0	-0.67132006	0.58115131	283.01241219	-24.83622186	0.65468072	0	-0.36248755	0	-1.42184278	0	0	0.76092203	0
0.57000000	-7.59343442	249.78431227	24.95053560	0.63637507	0	-0.67128265	0.56698478	282.72986917	-24.81488081	0.65481329	0	-0.36240207	0	-1.40664302	0	0	0.76452628	-0.00000000
